# xmcd
#
# Track frame offsets:
#	150
#	15544
#	29416
#
# Disc length: 575 seconds
#
# Revision: 0
# Processed by: cddbd v1.5.2PL0 Copyright (c) Steve Scherf et al.
# Submitted via: audiograbber 1.83.01
#
DISCID=19023d03
DTITLE=Steintaler - Wenn einer noch den anderen kennt
DYEAR=2004
DGENRE=Volksmusik
TTITLE0=Wenn einer noch den anderen kennt
TTITLE1=Der Mega Blues
TTITLE2=Der Steintal Blues
EXTD=<http://www.hit-radio24.de> \n
EXTT0=
EXTT1=
EXTT2=
PLAYORDER=
